<?xml version="1.0" encoding="UTF-8" standalone="no" ?>
<!DOCTYPE svg PUBLIC "-//W3C//DTD SVG 1.1//EN" "http://www.w3.org/Graphics/SVG/1.1/DTD/svg11.dtd">
<svg xmlns="http://www.w3.org/2000/svg" xmlns:xlink="http://www.w3.org/1999/xlink" version="1.1" width="640" height="640" viewBox="0 0 640 640" xml:space="preserve">
<desc>Created with Fabric.js 4.6.0</desc>
<defs>
</defs>
<g transform="matrix(1 0 0 1.42 283.36 272.61)" id="DrNrQK0TRJnfoM4GC_fsq"  >
<path style="stroke: rgb(255,255,255); stroke-width: 20; stroke-dasharray: none; stroke-linecap: butt; stroke-dashoffset: 0; stroke-linejoin: miter; stroke-miterlimit: 4; fill: rgb(255,255,255); fill-opacity: 0; fill-rule: nonzero; opacity: 1;" vector-effect="non-scaling-stroke"  transform=" translate(0, 0)" d="M -40.11248 48.07635 C -40.11248 48.07635 -40.93002 -26.62384000000001 40.11281 -48.07635" stroke-linecap="round" />
</g>
<g transform="matrix(-1 0 0 1.42 357.33 272.61)" id="M7Nw8FuM5rm4FhvHPsOMd"  >
<path style="stroke: rgb(255,255,255); stroke-width: 20; stroke-dasharray: none; stroke-linecap: butt; stroke-dashoffset: 0; stroke-linejoin: miter; stroke-miterlimit: 4; fill: rgb(255,255,255); fill-opacity: 0; fill-rule: nonzero; opacity: 1;" vector-effect="non-scaling-stroke"  transform=" translate(0, 0)" d="M -40.11248 48.07635 C -40.11248 48.07635 -40.93002 -26.62384000000001 40.11281 -48.07635" stroke-linecap="round" />
</g>
<g transform="matrix(0.7 0 0 0.97 240.73 353.51)" id="TRTDZQwrAz27d3fnXFkdr"  >
<path style="stroke: rgb(255,255,255); stroke-width: 20; stroke-dasharray: none; stroke-linecap: butt; stroke-dashoffset: 0; stroke-linejoin: miter; stroke-miterlimit: 4; fill: rgb(255,255,255); fill-opacity: 0; fill-rule: nonzero; opacity: 1;" vector-effect="non-scaling-stroke"  transform=" translate(0, 0)" d="M 54.78842 -51.01379 C 54.78842 -51.01379 78.02074 52.01651 -56.322689999999994 51.00641" stroke-linecap="round" />
</g>
<g transform="matrix(-0.7 0 0 0.97 399.48 353.59)" id="NaeFmp05fu7CUDfk1x7wD"  >
<path style="stroke: rgb(255,255,255); stroke-width: 20; stroke-dasharray: none; stroke-linecap: butt; stroke-dashoffset: 0; stroke-linejoin: miter; stroke-miterlimit: 4; fill: rgb(255,255,255); fill-opacity: 0; fill-rule: nonzero; opacity: 1;" vector-effect="non-scaling-stroke"  transform=" translate(0, 0)" d="M 54.78842 -51.01379 C 54.78842 -51.01379 78.02074 52.01651 -56.322689999999994 51.00641" stroke-linecap="round" />
</g>
<g transform="matrix(1 0 0 1 320.35 358.67)" id="24MHnbUMB4SNG2qKYuvZa"  >
<path style="stroke: rgb(255,255,255); stroke-width: 20; stroke-dasharray: none; stroke-linecap: butt; stroke-dashoffset: 0; stroke-linejoin: miter; stroke-miterlimit: 4; fill: rgb(255,255,255); fill-opacity: 0; fill-rule: nonzero; opacity: 1;" vector-effect="non-scaling-stroke"  transform=" translate(0, 0)" d="M 0 -76.76768 L 0 76.76767" stroke-linecap="round" />
</g>
</svg>