<svg width="30" height="30" viewBox="0 0 30 30" fill="none" xmlns="http://www.w3.org/2000/svg">
<path d="M14.991 0C6.72505 0 0 6.72505 0 14.991C0 23.2569 6.72505 29.982 14.991 29.982C23.2569 29.982 29.982 23.2569 29.982 14.991C29.982 6.72505 23.2569 0 14.991 0ZM20.7568 16.1441H16.1441V20.7568C16.1441 21.0626 16.0227 21.3559 15.8064 21.5722C15.5901 21.7884 15.2968 21.9099 14.991 21.9099C14.6852 21.9099 14.3918 21.7884 14.1756 21.5722C13.9593 21.3559 13.8378 21.0626 13.8378 20.7568V16.1441H9.22523C8.91939 16.1441 8.62608 16.0227 8.40982 15.8064C8.19357 15.5901 8.07207 15.2968 8.07207 14.991C8.07207 14.6852 8.19357 14.3918 8.40982 14.1756C8.62608 13.9593 8.91939 13.8378 9.22523 13.8378H13.8378V9.22523C13.8378 8.91939 13.9593 8.62608 14.1756 8.40982C14.3918 8.19357 14.6852 8.07207 14.991 8.07207C15.2968 8.07207 15.5901 8.19357 15.8064 8.40982C16.0227 8.62608 16.1441 8.91939 16.1441 9.22523V13.8378H20.7568C21.0626 13.8378 21.3559 13.9593 21.5722 14.1756C21.7884 14.3918 21.9099 14.6852 21.9099 14.991C21.9099 15.2968 21.7884 15.5901 21.5722 15.8064C21.3559 16.0227 21.0626 16.1441 20.7568 16.1441Z" fill="#11AD4F"/>
</svg>
