<svg width="21" height="19" viewBox="0 0 21 19" fill="none" xmlns="http://www.w3.org/2000/svg">
<path fill-rule="evenodd" clip-rule="evenodd" d="M0 1.35714C0 0.607614 0.50368 0 1.125 0H19.875C20.4963 0 21 0.607614 21 1.35714C21 2.10667 20.4963 2.71429 19.875 2.71429H1.125C0.50368 2.71429 0 2.10667 0 1.35714Z" fill="#646464"/>
<path fill-rule="evenodd" clip-rule="evenodd" d="M0 9.49972C0 8.75019 0.50368 8.14258 1.125 8.14258H19.875C20.4963 8.14258 21 8.75019 21 9.49972C21 10.2493 20.4963 10.8569 19.875 10.8569H1.125C0.50368 10.8569 0 10.2493 0 9.49972Z" fill="#646464"/>
<path fill-rule="evenodd" clip-rule="evenodd" d="M0 17.6433C0 16.8937 0.50368 16.2861 1.125 16.2861H19.875C20.4963 16.2861 21 16.8937 21 17.6433C21 18.3928 20.4963 19.0004 19.875 19.0004H1.125C0.50368 19.0004 0 18.3928 0 17.6433Z" fill="#646464"/>
</svg>
