<svg width="19" height="19" viewBox="0 0 19 19" fill="none" xmlns="http://www.w3.org/2000/svg">
<path fill-rule="evenodd" clip-rule="evenodd" d="M3.03047 0.909091C2.52837 0.406988 1.64646 0.474828 1.06067 1.06061C0.474889 1.6464 0.407049 2.52831 0.909152 3.03041L7.50002 9.62127L1.03047 16.0908C0.52837 16.5929 0.596209 17.4748 1.182 18.0606C1.76778 18.6464 2.64969 18.7142 3.15179 18.2121L9.62134 11.7426L16.0614 18.1827C16.5635 18.6848 17.4455 18.617 18.0312 18.0312C18.617 17.4454 18.6849 16.5635 18.1828 16.0614L11.7427 9.62127L18.3041 3.05985C18.8062 2.55775 18.7383 1.67584 18.1526 1.09005C17.5668 0.504265 16.6849 0.436427 16.1828 0.938529L9.62134 7.49995L3.03047 0.909091Z" fill="#F2F2F2"/>
</svg>
