<svg width="26" height="26" viewBox="0 0 26 26" fill="none" xmlns="http://www.w3.org/2000/svg">
<path d="M25.7463 0.328143C25.655 0.227794 25.5443 0.147003 25.4208 0.0906528C25.2974 0.0343026 25.1638 0.00356322 25.0282 0.000291804C24.8925 -0.00297961 24.7576 0.0212849 24.6316 0.0716194C24.5056 0.121954 24.3911 0.197313 24.2951 0.293143L23.5219 1.06252C23.4282 1.15628 23.3756 1.2834 23.3756 1.41595C23.3756 1.54851 23.4282 1.67563 23.5219 1.76939L24.2307 2.47689C24.2771 2.52357 24.3324 2.5606 24.3932 2.58588C24.454 2.61115 24.5192 2.62416 24.5851 2.62416C24.6509 2.62416 24.7161 2.61115 24.7769 2.58588C24.8378 2.5606 24.893 2.52357 24.9394 2.47689L25.6932 1.72689C26.0744 1.34627 26.1101 0.726267 25.7463 0.328143ZM21.9588 2.62502L10.6763 13.8875C10.6079 13.9556 10.5582 14.0402 10.532 14.1331L10.0101 15.6875C9.99757 15.7297 9.99669 15.7744 10.0075 15.8171C10.0183 15.8597 10.0405 15.8986 10.0716 15.9297C10.1027 15.9609 10.1416 15.983 10.1842 15.9938C10.2269 16.0046 10.2717 16.0037 10.3138 15.9912L11.8669 15.4694C11.9599 15.4431 12.0444 15.3934 12.1126 15.325L23.3751 4.04126C23.4793 3.93595 23.5377 3.79379 23.5377 3.64564C23.5377 3.49749 23.4793 3.35533 23.3751 3.25001L22.7532 2.62502C22.6477 2.51987 22.5049 2.46082 22.356 2.46082C22.2071 2.46082 22.0643 2.51987 21.9588 2.62502Z" fill="white"/>
<path d="M21.1462 9.10374L13.5281 16.7369C13.2337 17.032 12.8718 17.251 12.4737 17.375L10.855 17.9169C10.4708 18.0253 10.0647 18.0294 9.67839 17.9287C9.29212 17.828 8.93969 17.6261 8.65741 17.3438C8.37514 17.0615 8.17324 16.7091 8.07251 16.3228C7.97179 15.9366 7.97588 15.5304 8.08437 15.1462L8.62624 13.5275C8.74983 13.1296 8.96841 12.7677 9.26311 12.4731L16.8962 4.85375C16.9662 4.78386 17.0139 4.69479 17.0332 4.59781C17.0526 4.50082 17.0427 4.40028 17.0049 4.30889C16.9671 4.21751 16.9031 4.13938 16.8209 4.0844C16.7387 4.02942 16.642 4.00005 16.5431 4H3.5C2.57174 4 1.6815 4.36875 1.02513 5.02513C0.368749 5.6815 0 6.57174 0 7.5V22.5C0 23.4282 0.368749 24.3185 1.02513 24.9748C1.6815 25.6312 2.57174 26 3.5 26H18.5C19.4282 26 20.3185 25.6312 20.9748 24.9748C21.6312 24.3185 22 23.4282 22 22.5V9.45687C21.9999 9.35797 21.9706 9.26131 21.9156 9.17911C21.8606 9.09691 21.7825 9.03286 21.6911 8.99506C21.5997 8.95726 21.4992 8.94742 21.4022 8.96676C21.3052 8.98611 21.2161 9.03378 21.1462 9.10374Z" fill="white"/>
</svg>
