<svg width="15" height="15" viewBox="0 0 15 15" fill="none" xmlns="http://www.w3.org/2000/svg">
<path d="M7.3033 0C3.2763 0 0 3.2763 0 7.3033C0 11.3303 3.2763 14.6066 7.3033 14.6066C11.3303 14.6066 14.6066 11.3303 14.6066 7.3033C14.6066 3.2763 11.3303 0 7.3033 0ZM10.1123 7.8651H4.49434C4.34534 7.8651 4.20245 7.80591 4.09709 7.70055C3.99174 7.59519 3.93255 7.4523 3.93255 7.3033C3.93255 7.15431 3.99174 7.01141 4.09709 6.90606C4.20245 6.8007 4.34534 6.74151 4.49434 6.74151H10.1123C10.2613 6.74151 10.4042 6.8007 10.5095 6.90606C10.6149 7.01141 10.6741 7.15431 10.6741 7.3033C10.6741 7.4523 10.6149 7.59519 10.5095 7.70055C10.4042 7.80591 10.2613 7.8651 10.1123 7.8651Z" fill="#F53261"/>
</svg>
