<svg width="29" height="29" viewBox="0 0 29 29" fill="none" xmlns="http://www.w3.org/2000/svg">
<path fill-rule="evenodd" clip-rule="evenodd" d="M21.6155 4.03018C21.9792 3.58296 22.6336 3.51787 23.077 3.8848C24.6162 5.15863 25.8562 6.761 26.7075 8.57645C27.5588 10.3919 28.0002 12.3752 28 14.3835C28 21.9012 21.9534 28 14.5 28C7.04723 28 1.00089 21.902 1.00006 14.3849C0.994378 12.3838 1.42607 10.406 2.26441 8.59222C3.10298 6.77802 4.32778 5.1726 5.85161 3.89028C6.292 3.51969 6.94685 3.57936 7.31426 4.02355C7.68167 4.46775 7.62252 5.12826 7.18213 5.49885C5.89273 6.58389 4.85636 7.94231 4.14681 9.47741C3.43726 11.0125 3.07197 12.6865 3.07697 14.3802L3.07697 14.3834C3.07697 20.7441 8.19376 25.9052 14.5 25.9052C20.8063 25.9052 25.9231 20.7441 25.9231 14.3834C25.9233 12.6849 25.55 11.0075 24.83 9.47213C24.11 7.93678 23.0614 6.58163 21.7596 5.50433C21.3162 5.1374 21.2517 4.4774 21.6155 4.03018Z" fill="#646464"/>
<path d="M28 14.3835C28.0002 12.3752 27.5588 10.3919 26.7075 8.57645C25.8562 6.761 24.6162 5.15863 23.077 3.8848C22.6336 3.51787 21.9792 3.58296 21.6155 4.03018C21.2517 4.4774 21.3162 5.1374 21.7596 5.50433C23.0614 6.58163 24.11 7.93678 24.83 9.47213C25.55 11.0075 25.9233 12.6849 25.9231 14.3834C25.9231 20.7441 20.8063 25.9052 14.5 25.9052C8.19376 25.9052 3.07697 20.7441 3.07697 14.3834L3.07697 14.3802C3.07197 12.6865 3.43726 11.0125 4.14681 9.47741C4.85636 7.94231 5.89273 6.58389 7.18213 5.49885C7.62252 5.12826 7.68167 4.46775 7.31426 4.02355C6.94685 3.57936 6.292 3.51969 5.85161 3.89028C4.32778 5.1726 3.10298 6.77802 2.26441 8.59222C1.42607 10.406 0.994378 12.3838 1.00006 14.3849C1.00089 21.902 7.04723 28 14.5 28C21.9534 28 28 21.9012 28 14.3835ZM28 14.3835L26.9615 14.3834" stroke="#646464" stroke-width="1.05195" stroke-linecap="round" stroke-linejoin="round"/>
<path fill-rule="evenodd" clip-rule="evenodd" d="M14.5001 1C14.9386 1 15.2942 1.45712 15.2942 2.02101V14.2731C15.2942 14.837 14.9386 15.2941 14.5001 15.2941C14.0615 15.2941 13.7059 14.837 13.7059 14.2731V2.02101C13.7059 1.45712 14.0615 1 14.5001 1Z" fill="#646464" stroke="#646464" stroke-width="1.4026" stroke-linecap="round" stroke-linejoin="round"/>
</svg>
