<svg width="26" height="29" viewBox="0 0 26 29" fill="none" xmlns="http://www.w3.org/2000/svg">
<path d="M24.5562 6.75078C24.594 6.72798 24.6253 6.69533 24.6471 6.65609C24.6688 6.61685 24.6803 6.5724 24.6803 6.52715C24.6803 6.4819 24.6688 6.43744 24.6471 6.39821C24.6253 6.35897 24.594 6.32632 24.5562 6.30352L15.01 0.559754C14.3992 0.193096 13.7057 0 12.9997 0C12.2937 0 11.6002 0.193096 10.9894 0.559754L1.44501 6.30352C1.40727 6.32632 1.37596 6.35897 1.3542 6.39821C1.33244 6.43744 1.32098 6.4819 1.32098 6.52715C1.32098 6.5724 1.33244 6.61685 1.3542 6.65609C1.37596 6.69533 1.40727 6.72798 1.44501 6.75078L12.875 13.714C12.9134 13.7374 12.9573 13.7498 13.0019 13.7498C13.0465 13.7498 13.0903 13.7374 13.1288 13.714L24.5562 6.75078ZM0.375005 8.51196C0.336881 8.48917 0.293621 8.4772 0.249599 8.47728C0.205577 8.47735 0.162354 8.48946 0.124301 8.51238C0.086248 8.5353 0.0547145 8.56823 0.0328889 8.60782C0.0110633 8.64741 -0.000280299 8.69227 5.26119e-06 8.73786V19.993C0.000948826 20.5354 0.138986 21.0681 0.400388 21.5381C0.66179 22.0081 1.03745 22.399 1.49 22.672L11.625 28.9653C11.663 28.988 11.7061 29 11.7499 29C11.7938 29 11.8369 28.9881 11.8749 28.9654C11.9129 28.9427 11.9445 28.91 11.9664 28.8707C11.9884 28.8314 12 28.7868 12 28.7414V15.6829C12 15.6375 11.9884 15.5929 11.9664 15.5536C11.9445 15.5143 11.913 15.4817 11.875 15.459L0.375005 8.51196ZM14 15.7282V28.7381C14 28.7835 14.0116 28.8282 14.0336 28.8675C14.0556 28.9068 14.0871 28.9395 14.1251 28.9621C14.1631 28.9848 14.2062 28.9968 14.2501 28.9968C14.2939 28.9968 14.337 28.9848 14.375 28.9621L24.5094 22.6688C24.9616 22.3961 25.3371 22.0058 25.5986 21.5364C25.8601 21.067 25.9984 20.5349 26 19.993V8.73786C25.9998 8.69249 25.9882 8.64796 25.9662 8.60873C25.9442 8.5695 25.9126 8.53694 25.8746 8.51433C25.8366 8.49171 25.7936 8.47983 25.7498 8.47987C25.706 8.47991 25.6629 8.49187 25.625 8.51455L14.125 15.5049C14.0871 15.5276 14.0557 15.5601 14.0337 15.5993C14.0118 15.6385 14.0002 15.683 14 15.7282Z" fill="white"/>
</svg>
