<svg width="30" height="30" viewBox="0 0 30 30" fill="none" xmlns="http://www.w3.org/2000/svg">
<path d="M5.5957 6.09414H24.3457C24.5647 6.09404 24.7835 6.10793 25.0008 6.13574C24.9271 5.61881 24.7496 5.12215 24.4788 4.6757C24.208 4.22925 23.8496 3.84225 23.4253 3.53805C23.0009 3.23385 22.5193 3.01874 22.0095 2.90569C21.4998 2.79264 20.9724 2.784 20.4592 2.88027L5.03906 5.51289H5.02148C4.05356 5.69799 3.19281 6.24562 2.61504 7.04395C3.48551 6.4248 4.5275 6.09276 5.5957 6.09414ZM24.3457 7.50039H5.5957C4.60147 7.50148 3.64828 7.89691 2.94525 8.59994C2.24223 9.30297 1.84679 10.2562 1.8457 11.2504V22.5004C1.84679 23.4946 2.24223 24.4478 2.94525 25.1508C3.64828 25.8539 4.60147 26.2493 5.5957 26.2504H24.3457C25.3399 26.2493 26.2931 25.8539 26.9962 25.1508C27.6992 24.4478 28.0946 23.4946 28.0957 22.5004V11.2504C28.0946 10.2562 27.6992 9.30297 26.9962 8.59994C26.2931 7.89691 25.3399 7.50148 24.3457 7.50039ZM21.5625 18.7504C21.1917 18.7504 20.8291 18.6404 20.5208 18.4344C20.2125 18.2284 19.9721 17.9355 19.8302 17.5929C19.6883 17.2503 19.6512 16.8733 19.7235 16.5096C19.7959 16.1459 19.9745 15.8118 20.2367 15.5496C20.4989 15.2873 20.833 15.1088 21.1967 15.0364C21.5604 14.9641 21.9374 15.0012 22.28 15.1431C22.6226 15.285 22.9155 15.5254 23.1215 15.8337C23.3275 16.142 23.4375 16.5046 23.4375 16.8754C23.4375 17.3727 23.24 17.8496 22.8883 18.2012C22.5367 18.5528 22.0598 18.7504 21.5625 18.7504Z" fill="white"/>
<path d="M1.875 15.2051V9.375C1.875 8.10527 2.57812 5.97656 5.01855 5.51543C7.08984 5.12695 9.14062 5.12695 9.14062 5.12695C9.14062 5.12695 10.4883 6.06445 9.375 6.06445C8.26172 6.06445 8.29102 7.5 9.375 7.5C10.459 7.5 9.375 8.87695 9.375 8.87695L5.00977 13.8281L1.875 15.2051Z" fill="white"/>
</svg>
