<?xml version="1.0" encoding="UTF-8"?>
<svg id="Layer_2" data-name="Layer 2" xmlns="http://www.w3.org/2000/svg" viewBox="0 0 1993.79 1744.46">
  <defs>
    <style>
      .cls-1 {
        fill: #fff;
      }
    </style>
  </defs>
  <g id="Layer_1-2" data-name="Layer 1">
    <path class="cls-1" d="m0,362.63c.79-5.72,1.47-11.45,2.39-17.15,5.67-35.04,22.93-62.66,53.65-80.83,52.6-31.12,105.55-61.66,158.31-92.52,90.85-53.14,181.62-106.44,272.6-159.37,8.68-5.05,18.59-8.01,28.02-11.68,2.24-.87,4.89-.94,7.36-.94,20-.07,40,.17,60-.14,8.74-.14,16.49,2.77,23.73,6.74,17.52,9.6,34.77,19.7,52,29.81,123.37,72.44,246.76,144.84,370.02,217.47,30.57,18.01,51.48,44.01,60.54,78.66,2.25,8.61,3.76,17.68,3.82,26.54.36,59,.21,118,.32,177,0,3.39-1.02,5.46-4.04,7.2-62.74,36.22-125.43,72.55-188.13,108.83-.98.57-2.06.99-4.13,1.96v-6.3c0-54.17.31-108.33-.09-162.5-.36-48.39-21.07-85.97-62.54-111.25-73.81-44.98-147.76-89.75-221.9-134.18-17.93-10.75-38.04-15.61-58.97-16.84-28.19-1.65-53.63,6.04-77.9,20.36-70.43,41.54-141.39,82.2-211.92,123.58-37.33,21.9-59.41,54.53-65.26,97.65-.89,6.57-.91,13.29-.91,19.95-.06,83.5-.07,167-.02,250.5.03,39.51,13.59,73.39,43.44,99.75,8.66,7.65,18.75,13.82,28.68,19.85,70.75,42.97,141.52,85.91,212.55,128.42,17.94,10.74,37.99,15.61,58.94,16.94,29.34,1.86,55.39-6.66,80.39-21.82,91.15-55.27,182.51-110.2,274.25-164.5,37.1-21.96,75.19-42.29,113.14-62.77,77.56-41.85,153.1-87.19,229.01-131.9,48.93-28.82,97.75-57.85,146.85-86.39,15.54-9.03,32.79-13.53,50.65-15.75,32.65-4.06,61.26,6.07,89.1,22.41,96.8,56.84,194.06,112.88,291.15,169.22,37.88,21.98,75.94,43.69,113.6,66.04,34.14,20.25,56.07,49.65,63.24,89.13,1.42,7.8,1.73,15.88,1.73,23.83.09,163.5.21,327,0,490.49-.07,51.18-23.71,88.69-67.82,114.18-105.55,61.01-210.91,122.33-316.36,183.52-31.69,18.39-63.27,36.98-95.17,55-8.63,4.87-18.17,8.2-27.45,11.83-3,1.17-6.51,1.4-9.79,1.42-17,.13-34.04-.64-50.99.27-14.91.81-27.86-3.75-40.26-10.94-70.47-40.81-140.91-81.7-211.35-122.57-69.28-40.21-138.7-80.19-207.78-120.76-36.5-21.44-58.17-53.48-64.07-95.66-.85-6.07-.64-12.31-.65-18.47-.04-53.67.03-107.33-.13-161-.01-4.8,1.58-7.45,5.72-9.84,61.76-35.58,123.43-71.34,185.12-107.04,1.39-.81,2.84-1.53,5.31-2.85v7.15c0,50.17-.06,100.33.03,150.5.03,15.51,1.15,30.88,6.09,45.8,10.44,31.54,29.72,55.83,58.51,72.56,73.44,42.67,146.8,85.47,220.35,127.96,15.57,8.99,32.72,13.76,50.61,15.93,31.16,3.77,59.4-3.59,86.23-19.79,68.72-41.49,137.97-82.12,206.84-123.36,33.16-19.86,55.03-48.36,63.08-86.6,1.57-7.43,2.55-15.15,2.56-22.73.18-88.66.87-177.34-.2-265.99-.54-44.8-20.67-81.15-59.11-104.52-58.2-35.37-117.56-68.82-176.43-103.09-14.68-8.55-29.41-17.02-44.04-25.64-22.02-12.98-45.89-19.48-71.32-19.67-22.19-.17-43.18,5.09-62.51,16.34-102.49,59.65-204.94,119.35-307.48,178.91-92.31,53.62-184.73,107.05-277.05,160.65-60.35,35.04-120.55,70.33-180.95,105.29-17.2,9.96-35.98,15.34-55.81,17.34-30.81,3.1-58.03-6.06-84.42-21.47-130.29-76.11-260.89-151.66-391.44-227.32-17.34-10.05-34.56-20.12-48.03-35.41-19.35-21.96-30.73-47.23-32.32-76.67-.1-1.94-.81-3.84-1.24-5.76,0-164.33,0-328.67,0-493Z"/>
  </g>
</svg>