<svg width="18" height="28" viewBox="0 0 18 28" fill="none" xmlns="http://www.w3.org/2000/svg">
<path d="M2.43628 7.3518C2.43628 7.3518 2.53505 5.08822 4.7369 3.27324C6.04429 2.19564 7.6144 1.88354 9.02125 1.86433C10.306 1.84855 11.4543 2.06599 12.1409 2.40073C13.3145 2.97554 15.6062 4.37485 15.6062 7.3518C15.6062 10.4845 13.6047 11.9043 11.3294 13.469C9.05417 15.0336 8.4725 16.568 8.4725 18.3267" stroke="white" stroke-width="3.67089" stroke-miterlimit="10" stroke-linecap="round"/>
<path d="M10.3004 25.0075C10.3004 26.017 9.48198 26.8354 8.47246 26.8354C7.46293 26.8354 6.64455 26.017 6.64455 25.0075C6.64455 23.998 7.46293 23.1796 8.47246 23.1796C9.48198 23.1796 10.3004 23.998 10.3004 25.0075Z" fill="white" stroke="white" stroke-width="0.734177"/>
</svg>
