<svg width="36" height="36" viewBox="0 0 36 36" fill="none" xmlns="http://www.w3.org/2000/svg">
<path fill-rule="evenodd" clip-rule="evenodd" d="M20 0H16V3.13217C13.3535 3.48478 10.9252 4.52746 8.90173 6.07336L6.82837 4.00003L4 6.82846L6.07336 8.90178C4.52747 10.9252 3.48486 13.3535 3.1322 16H0V20H3.1322C3.49414 22.7167 4.58325 25.2035 6.19739 27.2584L4 29.4558L6.82849 32.2842L9.06384 30.0488C11.0543 31.5275 13.4238 32.5246 16 32.8678V36H20V32.8678C22.6465 32.5152 25.075 31.4726 27.0983 29.9267L29.4558 32.2842L32.2842 29.4558L29.9266 27.0983C31.4725 25.0749 32.5151 22.6465 32.8678 20H36V16H32.8678C32.5245 13.4238 31.5275 11.0544 30.0488 9.06394L32.2843 6.82843L29.4559 4L27.2584 6.19746C25.2036 4.58327 22.7168 3.49414 20 3.13217V0ZM18 29C24.0751 29 29 24.0751 29 18C29 11.9249 24.0751 7 18 7C11.9249 7 7 11.9249 7 18C7 24.0751 11.9249 29 18 29Z" fill="#646464"/>
</svg>
