<svg width="27" height="30" viewBox="0 0 27 30" fill="none" xmlns="http://www.w3.org/2000/svg">
<path d="M23.6377 6.41593C23.4274 6.31128 23.2227 6.19656 23.0244 6.0722C22.4476 5.705 21.9188 5.27233 21.4493 4.78351C20.2747 3.4892 19.836 2.17614 19.6744 1.25681H19.6809C19.5459 0.493725 19.6017 0 19.6101 0H14.26V19.9228C14.26 20.1902 14.26 20.4546 14.2483 20.7158C14.2483 20.7483 14.2451 20.7783 14.2431 20.8133C14.2431 20.8277 14.2431 20.8427 14.2399 20.8577V20.869C14.1835 21.5838 13.9455 22.2743 13.547 22.8798C13.1484 23.4853 12.6014 23.9872 11.9542 24.3413C11.2796 24.7109 10.5166 24.9047 9.74053 24.9038C7.24782 24.9038 5.22756 22.9464 5.22756 20.529C5.22756 18.1116 7.24782 16.1542 9.74053 16.1542C10.2124 16.1538 10.6813 16.2253 11.13 16.3661L11.1365 11.1201C9.77451 10.9506 8.39087 11.0549 7.07284 11.4262C5.7548 11.7975 4.53098 12.4279 3.47857 13.2775C2.55642 14.049 1.78117 14.9697 1.1877 15.998C0.961853 16.3729 0.109749 17.8797 0.00656234 20.3252C-0.0583351 21.7133 0.374531 23.1513 0.580905 23.7457V23.7582C0.710699 24.1082 1.21365 25.3025 2.03331 26.3093C2.69425 27.1169 3.47513 27.8264 4.3508 28.4148V28.4023L4.36378 28.4148C6.95383 30.1097 9.82554 29.9985 9.82554 29.9985C10.3227 29.9791 11.9879 29.9985 13.879 29.1354C15.9765 28.1786 17.1706 26.753 17.1706 26.753C17.9335 25.9013 18.5401 24.9305 18.9644 23.8826C19.4485 22.657 19.6101 21.1871 19.6101 20.5996V10.0301C19.675 10.0676 20.5395 10.6182 20.5395 10.6182C20.5395 10.6182 21.7848 11.3869 23.7279 11.8875C25.1219 12.2438 27 12.3188 27 12.3188V7.20402C26.3419 7.27276 25.0057 7.07277 23.6377 6.41593Z" fill="black"/>
</svg>
