<svg width="250" height="250" viewBox="0 0 250 250" fill="none" xmlns="http://www.w3.org/2000/svg">
    <path d="M125 0C56.0757 0 0 56.0757 0 125C0 193.924 56.0757 250 125 250C193.924 250 250 193.924 250 125C250 56.0757 193.924 0 125 0ZM190.054 83.107L109.285 179.261C108.399 180.316 107.296 181.169 106.052 181.761C104.808 182.353 103.451 182.67 102.073 182.692H101.911C100.563 182.692 99.2308 182.408 97.9998 181.859C96.7688 181.311 95.6669 180.509 94.7656 179.507L60.1502 141.046C59.2711 140.113 58.5873 139.015 58.1389 137.814C57.6905 136.614 57.4865 135.336 57.5391 134.055C57.5917 132.775 57.8996 131.518 58.4449 130.358C58.9902 129.198 59.7618 128.159 60.7144 127.302C61.6669 126.445 62.7813 125.787 63.9918 125.366C65.2024 124.946 66.4848 124.772 67.7636 124.854C69.0425 124.936 70.292 125.273 71.4387 125.845C72.5854 126.417 73.6062 127.213 74.4411 128.185L101.659 158.425L175.331 70.7392C176.983 68.8286 179.321 67.6451 181.839 67.4444C184.357 67.2438 186.853 68.0421 188.788 69.6669C190.722 71.2916 191.939 73.6123 192.176 76.1273C192.413 78.6422 191.651 81.1495 190.054 83.107Z" fill="white"/>
</svg>
